<?xml version="1.0" standalone="no"?>
<!DOCTYPE svg PUBLIC "-//W3C//DTD SVG 20010904//EN"
 "http://www.w3.org/TR/2001/REC-SVG-20010904/DTD/svg10.dtd">
<svg version="1.0" xmlns="http://www.w3.org/2000/svg"
 width="1280.000000pt" height="1118.000000pt" viewBox="0 0 1280.000000 1118.000000"
 preserveAspectRatio="xMidYMid meet">
<metadata>
Created by potrace 1.15, written by Peter Selinger 2001-2017
</metadata>
<g transform="translate(0.000000,1118.000000) scale(0.100000,-0.100000)"
fill="#000000" stroke="none">
<path d="M4015 11166 c-41 -18 -83 -69 -90 -109 -3 -18 -5 -149 -3 -292 3
-254 4 -261 26 -293 45 -63 62 -67 320 -70 l232 -3 0 -94 0 -94 -47 -6 c-137
-18 -231 -56 -261 -107 l-16 -28 -226 0 c-214 0 -228 -1 -270 -22 -24 -13 -53
-36 -64 -51 -21 -28 -21 -41 -24 -571 -2 -489 -1 -544 14 -556 11 -10 20 -11
32 -3 14 8 18 30 20 112 l3 101 864 0 865 0 0 -100 c0 -92 2 -100 22 -111 18
-10 24 -8 40 11 17 21 18 54 18 519 0 304 -4 513 -11 541 -12 55 -59 106 -109
120 -19 5 -126 10 -238 10 l-202 0 -36 40 c-41 45 -105 73 -211 89 -39 6 -74
11 -77 11 -3 0 -6 42 -6 94 l0 95 233 3 234 3 40 27 c70 46 74 70 71 380 -3
251 -4 268 -24 294 -11 15 -33 37 -48 48 -27 20 -40 21 -534 23 -406 2 -513 0
-537 -11z m737 -1061 c27 -9 50 -21 54 -26 3 -5 -106 -9 -265 -9 -149 0 -271
2 -271 5 0 9 46 29 95 42 74 18 325 11 387 -12z"/>
<path d="M10579 10907 c-19 -12 -44 -42 -57 -67 l-22 -45 2 -897 c3 -892 3
-897 24 -925 33 -44 80 -71 140 -78 l54 -7 0 -94 c0 -81 2 -95 19 -103 37 -20
50 6 53 107 l3 92 695 0 695 0 3 -94 c3 -104 14 -126 51 -106 19 10 21 20 21
110 0 95 1 100 21 100 35 0 88 39 109 81 20 38 20 58 18 943 -3 900 -3 905
-24 933 -11 15 -36 38 -54 51 l-33 22 -842 0 -842 0 -34 -23z"/>
<path d="M549 10621 c-109 -35 -190 -109 -243 -221 -28 -59 -31 -74 -31 -166
l0 -102 -47 -5 c-127 -15 -198 -102 -198 -242 0 -114 69 -194 168 -195 l42 0
0 -205 c0 -231 6 -261 62 -295 18 -11 50 -20 71 -20 l37 0 0 -56 c0 -63 13
-94 38 -94 31 0 42 22 42 87 l0 63 435 0 435 0 0 -64 c0 -69 14 -92 50 -81 18
6 20 15 20 76 l0 69 33 0 c44 0 108 46 130 93 14 29 17 69 17 239 l0 204 45 2
c122 5 193 94 182 228 -9 117 -83 202 -196 225 l-59 13 -4 85 c-3 66 -10 100
-30 144 -37 79 -116 160 -197 200 -62 30 -72 32 -171 32 -92 -1 -112 -4 -160
-27 -30 -14 -64 -32 -74 -40 -17 -13 -24 -12 -73 18 -93 56 -217 69 -324 35z"/>
<path d="M7953 10545 c-104 -32 -199 -117 -231 -207 -12 -36 -21 -47 -32 -42
-8 4 -56 9 -106 12 -120 6 -175 -12 -249 -79 -62 -58 -111 -147 -121 -221 l-7
-50 -43 7 c-147 22 -278 -117 -245 -260 17 -74 54 -120 122 -152 l58 -28 0
-208 c1 -171 4 -215 17 -243 24 -51 68 -77 136 -82 l58 -4 0 -59 c0 -46 4 -60
18 -68 35 -19 52 4 52 70 l0 59 673 -2 672 -3 3 -57 c3 -65 19 -86 51 -68 18
9 21 20 21 70 l0 60 43 0 c54 0 115 35 138 80 17 31 19 59 19 241 l0 207 43 7
c56 10 88 27 125 69 52 60 60 173 18 253 -35 67 -125 123 -197 123 -25 0 -29
5 -43 53 -53 181 -254 304 -436 266 -90 -19 -90 -19 -110 33 -68 178 -270 279
-447 223z"/>
<path d="M94 6771 c-23 -10 -52 -34 -65 -52 l-24 -34 -3 -919 c-2 -906 -2
-920 18 -960 27 -55 62 -78 129 -85 l56 -6 5 -70 5 -70 30 0 30 0 5 70 5 70
690 0 690 0 3 -50 c4 -85 9 -97 40 -93 26 3 27 6 32 73 l5 70 43 6 c50 6 89
33 117 80 20 33 20 52 20 954 l0 920 -23 37 c-13 21 -40 45 -66 57 -42 21 -53
21 -872 21 -787 0 -831 -1 -870 -19z"/>
<path d="M4245 6324 c-173 -32 -353 -104 -488 -196 -82 -56 -192 -167 -245
-248 l-42 -65 0 77 c0 74 -13 108 -40 108 -5 0 -16 -7 -24 -16 -14 -13 -16
-57 -16 -325 0 -286 -1 -310 -17 -315 -46 -13 -89 -42 -110 -73 -23 -34 -23
-37 -23 -366 0 -291 2 -334 16 -346 11 -9 20 -10 32 -2 14 8 18 29 20 105 l3
95 182 6 c100 4 632 7 1182 7 l1000 0 5 -101 c4 -81 8 -104 22 -112 12 -8 21
-7 32 2 14 12 16 54 16 338 0 279 -2 330 -16 359 -21 45 -57 72 -111 85 l-43
11 0 334 c0 326 0 333 -20 339 -40 13 -50 -10 -50 -117 l0 -100 -49 74 c-141
210 -370 357 -671 430 -114 28 -425 35 -545 12z"/>
<path d="M7497 6306 c-47 -17 -71 -38 -91 -81 -14 -29 -16 -114 -16 -694 0
-636 1 -663 19 -700 27 -52 65 -75 136 -81 l60 -5 5 -69 c5 -76 24 -102 54
-77 12 10 16 32 16 82 l0 69 430 0 430 0 0 -65 c0 -52 3 -66 19 -74 32 -18 50
7 53 74 l3 60 49 7 c58 8 111 53 126 108 13 47 13 1293 0 1340 -13 47 -68 99
-116 111 -22 4 -286 8 -589 8 -438 0 -558 -3 -588 -13z"/>
<path d="M10669 6311 c-45 -14 -79 -43 -100 -82 -18 -37 -19 -66 -19 -832 0
-849 -1 -825 47 -815 17 3 18 31 21 491 l2 487 1055 0 1055 0 0 -484 c0 -480
0 -485 20 -491 52 -16 50 -43 50 814 l0 796 -23 39 c-12 22 -38 49 -57 60 -35
21 -46 21 -1030 23 -547 1 -1007 -2 -1021 -6z"/>
<path d="M5506 6169 c-52 -41 -25 -119 41 -119 62 0 87 80 37 119 -15 12 -32
21 -39 21 -7 0 -24 -9 -39 -21z"/>
<path d="M3380 6130 c-43 -43 -10 -110 54 -110 59 0 88 68 46 110 -11 11 -33
20 -50 20 -17 0 -39 -9 -50 -20z"/>
<path d="M3610 2241 c-19 -10 -45 -36 -57 -57 l-23 -39 0 -918 c0 -1007 -4
-947 60 -1001 18 -14 49 -29 71 -32 l39 -7 0 -82 c0 -63 4 -86 16 -96 11 -9
20 -10 32 -2 13 8 18 29 20 97 l3 86 704 0 705 0 0 -84 c0 -64 4 -87 16 -97
11 -9 20 -10 32 -2 13 8 18 29 20 95 l3 86 48 4 c61 6 108 39 132 92 18 39 19
85 19 937 0 644 -3 906 -11 930 -7 19 -21 45 -33 57 -48 54 -10 52 -918 52
-802 0 -845 -1 -878 -19z"/>
<path d="M7981 2235 c-392 -96 -671 -614 -621 -1156 28 -304 131 -542 314
-725 140 -139 271 -198 441 -198 159 0 294 58 426 182 234 220 358 584 329
969 -20 256 -97 475 -231 653 -171 227 -423 332 -658 275z"/>
<path d="M642 1973 c-18 -9 -45 -32 -60 -51 l-27 -35 -5 -421 -5 -420 -32 -9
c-43 -13 -93 -67 -104 -113 -4 -22 -9 -85 -9 -140 0 -78 3 -104 15 -114 13
-10 15 -51 15 -247 0 -142 4 -242 10 -254 13 -23 55 -25 64 -3 3 9 6 121 6
250 l0 234 430 0 430 0 2 -248 3 -247 30 0 30 0 3 248 c2 204 5 251 17 264 18
18 21 225 4 270 -14 38 -57 82 -96 98 l-33 14 0 414 c0 413 0 414 -22 447 -13
18 -36 43 -51 54 -27 20 -42 21 -305 24 -241 2 -281 0 -310 -15z m618 -833 l0
-90 -320 0 -320 0 0 83 c0 46 3 87 7 90 3 4 147 7 320 7 l313 0 0 -90z"/>
<path d="M10816 1724 c-36 -35 -9 -94 43 -94 35 0 51 17 51 55 0 17 -5 36 -12
43 -17 17 -64 15 -82 -4z m54 -32 c0 -13 -12 -22 -22 -16 -10 6 -1 24 13 24 5
0 9 -4 9 -8z"/>
<path d="M12442 1728 c-20 -20 -15 -76 7 -88 45 -23 91 -1 91 45 0 13 -7 31
-16 39 -18 19 -65 21 -82 4z m49 -41 c-1 -12 -15 -9 -19 4 -3 6 1 10 8 8 6 -3
11 -8 11 -12z"/>
<path d="M12487 1569 c-14 -8 -17 -24 -17 -84 l0 -75 -790 0 -789 0 -3 71 c-2
54 -7 75 -20 82 -12 8 -21 7 -32 -2 -14 -12 -16 -74 -16 -568 0 -445 3 -560
14 -586 15 -38 66 -84 101 -93 23 -6 24 -11 27 -82 l3 -77 30 0 30 0 3 78 3
77 634 0 634 0 3 -77 3 -78 30 0 30 0 3 78 c3 75 3 77 29 77 33 0 93 34 118
68 27 37 31 128 27 709 -2 440 -3 473 -20 482 -11 6 -24 6 -35 0z m-1347 -584
l0 -345 -125 0 -125 0 0 345 0 345 125 0 125 0 0 -345z m340 0 l0 -345 -135 0
-135 0 0 345 0 345 135 0 135 0 0 -345z m310 0 l0 -345 -120 0 -120 0 0 345 0
345 120 0 120 0 0 -345z m340 0 l0 -345 -130 0 -130 0 0 345 0 345 130 0 130
0 0 -345z m340 0 l0 -345 -135 0 -135 0 0 345 0 345 135 0 135 0 0 -345z"/>
</g>
</svg>
