<?xml version="1.0" standalone="no"?>
<!DOCTYPE svg PUBLIC "-//W3C//DTD SVG 20010904//EN"
 "http://www.w3.org/TR/2001/REC-SVG-20010904/DTD/svg10.dtd">
<svg version="1.0" xmlns="http://www.w3.org/2000/svg"
 width="1280.000000pt" height="1178.000000pt" viewBox="0 0 1280.000000 1178.000000"
 preserveAspectRatio="xMidYMid meet">
<metadata>
Created by potrace 1.15, written by Peter Selinger 2001-2017
</metadata>
<g transform="translate(0.000000,1178.000000) scale(0.100000,-0.100000)"
fill="#000000" stroke="none">
<path d="M5246 11764 c-121 -26 -196 -78 -196 -137 0 -22 4 -28 15 -23 82 31
155 47 174 36 27 -14 26 -22 -1 -48 -30 -28 -60 -38 -165 -57 -123 -23 -167
-46 -193 -101 -12 -24 -29 -48 -38 -53 -9 -5 -13 -13 -9 -17 4 -5 17 -2 29 5
17 11 22 11 29 -1 13 -19 11 -30 -9 -54 -28 -34 -78 -64 -106 -64 -16 0 -41
14 -65 35 -44 40 -58 39 -96 -11 -14 -18 -72 -71 -128 -116 -56 -45 -129 -108
-162 -139 -47 -44 -71 -59 -112 -69 -29 -6 -56 -9 -62 -6 -10 6 -41 -40 -117
-174 -79 -140 -130 -213 -192 -275 -56 -55 -58 -60 -48 -87 8 -23 7 -35 -8
-63 -23 -43 -18 -55 36 -92 42 -29 43 -31 41 -79 -3 -64 -35 -190 -48 -187 -5
1 -14 22 -20 47 -11 52 -27 71 -49 63 -12 -5 -16 -22 -16 -72 0 -67 -12 -83
-40 -50 -7 8 -23 15 -35 15 l-23 0 28 -109 c32 -122 50 -169 80 -212 23 -32
89 -74 134 -85 29 -7 29 -7 23 30 -3 21 -20 60 -38 87 -17 27 -28 53 -25 57 4
4 12 -1 17 -10 5 -9 30 -24 55 -34 46 -17 64 -38 64 -72 0 -18 2 -18 47 4 72
37 133 33 287 -21 71 -25 131 -43 132 -42 2 2 -4 19 -14 38 -11 22 -42 51 -89
82 -64 42 -113 91 -102 101 20 17 184 68 234 73 l64 6 28 -57 c15 -31 33 -56
40 -56 7 0 107 20 223 45 l211 45 29 -22 c43 -31 109 -33 245 -4 l120 25 25
-20 c70 -55 222 -112 339 -126 58 -7 59 -6 36 49 -6 14 1 17 42 20 l48 3 8 55
c9 67 52 163 69 158 7 -2 29 -35 50 -74 38 -73 74 -104 121 -104 42 0 35 36
-22 113 -27 37 -52 78 -55 92 -16 63 39 157 115 195 63 33 110 35 165 9 l49
-22 -66 -8 c-87 -9 -102 -19 -124 -74 -24 -63 -16 -101 39 -181 28 -39 46 -78
46 -94 0 -22 6 -29 26 -34 65 -17 107 -74 140 -194 l17 -61 65 -7 c77 -8 96 1
100 44 5 48 -25 151 -59 204 -39 60 -110 98 -183 98 l-51 0 -48 72 c-32 48
-47 81 -45 98 3 24 6 25 64 25 51 0 68 -5 106 -30 122 -79 198 -162 198 -215
0 -29 29 -53 46 -39 19 16 17 56 -5 104 -10 22 -15 48 -12 58 6 16 9 15 33
-10 96 -103 115 -317 48 -544 -19 -64 -21 -67 -57 -74 -56 -10 -83 -31 -83
-64 0 -39 17 -50 88 -57 l60 -7 12 44 c7 24 18 56 26 70 26 50 55 194 61 304
10 193 -21 284 -140 418 -76 86 -103 124 -93 134 9 9 292 -127 371 -178 79
-51 134 -110 174 -183 22 -42 33 -51 76 -65 l50 -16 3 -49 3 -49 48 6 c59 7
121 32 121 48 0 7 -19 30 -42 51 -28 26 -44 49 -45 66 -3 52 -21 98 -72 182
-59 96 -109 197 -221 450 -141 316 -199 428 -211 409 -5 -8 -9 -24 -9 -36 0
-14 -6 -23 -15 -23 -8 0 -15 3 -15 8 0 4 -30 61 -66 127 -137 249 -430 659
-506 710 -18 12 -69 41 -113 66 l-80 44 -130 -3 c-71 -1 -204 4 -295 13 -202
18 -313 18 -404 -1z m946 -111 c45 -27 58 -38 45 -41 -29 -6 -61 6 -90 32 -24
22 -35 46 -23 46 3 0 33 -17 68 -37z m-1116 -535 c-22 -12 -57 -1 -37 11 7 5
22 6 33 3 18 -4 19 -6 4 -14z m595 -1218 c19 -11 27 -40 10 -40 -22 0 -59 20
-64 34 -7 19 23 22 54 6z"/>
<path d="M10430 11070 c-11 -11 -33 -47 -50 -81 -17 -33 -49 -80 -71 -103 -21
-24 -39 -47 -39 -51 0 -5 -8 -17 -17 -27 -10 -11 -34 -51 -53 -91 -54 -111
-119 -145 -383 -197 -85 -17 -178 -38 -208 -48 -50 -16 -54 -19 -60 -55 -8
-48 -13 -53 -45 -38 -17 8 -56 9 -119 5 -94 -7 -94 -7 -105 -38 -6 -17 -17
-83 -25 -147 -12 -108 -31 -169 -54 -184 -21 -12 -32 38 -30 130 4 142 -11
141 -98 -2 -83 -134 -163 -236 -297 -378 -128 -137 -145 -148 -386 -248 -85
-36 -176 -74 -202 -86 l-48 -20 -53 54 c-43 44 -61 55 -86 55 -29 0 -31 -2
-25 -27 32 -141 181 -277 389 -353 61 -23 205 -78 320 -123 l210 -82 65 -66
c73 -74 98 -89 185 -114 83 -24 108 -38 173 -98 42 -39 88 -66 177 -106 195
-88 245 -115 344 -191 92 -70 177 -120 203 -120 7 0 35 -22 62 -50 27 -27 88
-76 135 -109 48 -33 106 -80 129 -105 26 -28 51 -46 65 -46 38 -1 100 -35 138
-77 20 -22 57 -81 84 -131 35 -66 66 -109 113 -154 150 -145 421 -552 598
-898 41 -79 96 -166 150 -235 338 -435 598 -940 694 -1345 11 -47 29 -161 40
-255 10 -93 28 -197 39 -230 19 -55 91 -450 91 -495 0 -13 -7 -20 -19 -20 -27
0 -44 -25 -36 -52 4 -13 27 -53 51 -90 24 -36 44 -71 44 -77 0 -6 13 -17 29
-26 16 -8 65 -42 109 -75 44 -33 88 -60 97 -60 9 0 33 -18 52 -40 38 -42 63
-50 82 -26 18 22 -6 90 -48 138 -20 22 -81 70 -136 106 -119 80 -151 123 -166
228 -6 38 -23 146 -39 239 -16 94 -32 206 -35 250 -16 200 -51 389 -144 780
-52 220 -75 328 -86 408 -7 45 -6 47 17 47 13 0 29 5 36 12 18 18 15 156 -8
383 -17 167 -18 219 -10 329 29 384 132 763 332 1221 38 88 74 170 79 183 15
39 11 131 -8 163 -10 17 -43 50 -75 75 -33 26 -72 69 -92 103 -28 46 -52 69
-114 109 -104 69 -116 90 -107 195 15 179 48 372 100 582 30 121 59 254 65
297 17 134 -15 247 -93 326 -40 41 -43 42 -107 42 -215 0 -420 60 -591 172
-118 78 -244 204 -414 413 -71 88 -151 183 -176 210 -27 29 -61 83 -82 130
-40 89 -62 102 -85 50 -23 -53 -29 -60 -50 -63 -17 -3 -26 8 -50 60 -16 35
-44 81 -63 102 -42 49 -166 156 -179 156 -6 0 -19 -9 -30 -20z m-60 -228 c0
-13 -24 -39 -42 -45 -21 -7 -25 22 -6 41 14 14 48 16 48 4z m-470 -1877 c0
-36 -4 -65 -10 -65 -5 0 -30 5 -55 12 -58 16 -58 35 -2 82 60 51 67 48 67 -29z
m634 -348 c20 -32 38 -93 34 -117 -3 -20 -5 -20 -51 10 -28 18 -53 43 -61 61
-12 28 -11 34 5 50 11 11 19 24 19 29 0 16 38 -7 54 -33z m546 -393 c7 -46 55
-114 101 -141 18 -11 29 -26 29 -40 0 -12 10 -38 21 -58 28 -46 18 -55 -23
-21 -84 68 -106 79 -178 84 -57 4 -71 8 -76 24 -3 10 -15 27 -26 37 -18 18
-19 21 -4 50 20 38 113 113 135 109 10 -2 18 -18 21 -44z"/>
<path d="M7474 9630 c-17 -6 -38 -18 -48 -29 -16 -18 -16 -20 6 -35 25 -18 74
-21 112 -6 50 18 172 -58 232 -146 l35 -51 -11 -81 c-35 -257 -121 -453 -400
-907 -167 -271 -258 -439 -315 -580 -40 -101 -42 -130 -7 -130 20 0 29 14 66
106 59 146 140 297 298 554 232 377 301 511 362 695 35 108 66 264 66 332 0
46 -33 100 -106 171 -47 45 -137 97 -179 103 -11 1 -33 5 -50 8 -16 3 -44 1
-61 -4z"/>
<path d="M3970 9512 c0 -91 31 -208 81 -307 22 -44 92 -154 155 -245 64 -91
130 -192 147 -224 32 -59 33 -59 124 -95 l92 -36 19 -60 c11 -33 43 -153 71
-268 49 -200 101 -358 137 -411 15 -23 23 -26 78 -26 67 0 106 18 106 49 0 25
-16 36 -75 53 l-50 14 -27 104 c-15 58 -61 210 -103 339 -41 128 -75 239 -75
247 0 18 -155 112 -197 120 -31 6 -38 15 -75 88 -22 44 -71 128 -108 186 -141
220 -214 369 -235 482 -6 31 -34 58 -60 58 -3 0 -5 -31 -5 -68z"/>
<path d="M4868 9235 c-86 -23 -166 -81 -212 -153 -13 -20 -46 -61 -74 -91 -48
-52 -57 -81 -24 -81 8 0 41 25 73 55 45 43 88 69 196 121 138 65 248 137 238
155 -9 13 -142 10 -197 -6z"/>
<path d="M4870 8966 c-223 -71 -260 -88 -260 -119 0 -27 29 -57 80 -82 51 -25
80 -55 80 -82 0 -39 66 -23 112 28 24 26 33 29 91 29 64 0 65 1 76 32 6 17 16
60 21 94 9 54 7 68 -10 108 -10 25 -21 46 -22 46 -2 -1 -77 -25 -168 -54z
m148 -42 c2 -13 -15 -35 -53 -67 -30 -27 -55 -54 -55 -62 0 -17 -30 -35 -58
-35 -15 0 -21 9 -25 33 -4 17 -9 46 -12 62 l-7 30 94 32 c51 17 98 30 103 29
6 -2 11 -11 13 -22z"/>
<path d="M8450 8918 c-61 -243 -217 -554 -355 -708 -148 -165 -184 -241 -300
-625 -91 -301 -91 -301 -140 -380 -24 -38 -51 -87 -61 -108 -16 -34 -17 -39
-2 -53 14 -15 17 -15 33 2 9 11 38 56 65 101 27 45 91 139 144 209 53 71 111
160 130 199 33 69 66 188 66 240 0 24 -3 26 -30 20 -39 -8 -38 -2 1 122 36
112 55 140 218 316 116 125 173 217 206 330 9 31 21 57 27 57 6 0 29 -5 51
-12 35 -11 41 -10 53 7 21 29 17 67 -16 137 -22 47 -30 78 -30 119 0 43 -4 58
-16 63 -28 11 -33 7 -44 -36z"/>
<path d="M6856 8628 c-20 -65 -36 -96 -103 -206 -188 -309 -405 -625 -573
-833 -67 -83 -236 -188 -303 -189 -79 0 -171 102 -216 239 -27 82 -26 89 4
103 18 8 25 19 25 39 0 36 -26 44 -120 36 -48 -4 -73 -2 -86 8 -26 18 -9 35
83 85 65 35 83 40 138 40 73 0 99 17 68 45 -27 25 -92 65 -105 65 -6 0 -25
-15 -42 -33 -37 -39 -118 -89 -151 -92 -13 -2 -40 -9 -60 -16 l-37 -14 -41 45
c-69 77 -97 128 -86 157 14 37 11 96 -7 121 -20 30 -44 28 -44 -3 0 -45 -23
-76 -93 -122 -38 -25 -78 -60 -88 -77 -42 -69 -9 -108 75 -87 76 19 114 14
146 -17 16 -16 32 -45 35 -64 6 -34 9 -36 66 -48 46 -10 66 -10 85 -1 32 14
47 6 34 -19 -5 -10 -10 -25 -10 -32 1 -16 71 -61 106 -68 21 -4 31 -19 58 -90
39 -106 85 -171 155 -221 42 -30 63 -39 95 -39 60 1 131 29 216 86 41 28 104
66 140 83 91 45 121 65 230 147 141 105 209 147 223 136 7 -5 48 -38 92 -73
78 -62 159 -108 171 -96 3 3 -4 99 -16 214 -26 241 -38 676 -22 736 6 21 8 45
5 53 -6 17 -42 19 -47 2z"/>
<path d="M8336 7751 c-4 -5 -41 -35 -84 -67 -153 -116 -203 -178 -218 -273
l-7 -41 40 0 c63 0 149 27 288 89 189 86 264 116 329 135 49 15 57 20 54 39
-5 33 -43 32 -138 -2 -123 -45 -263 -40 -150 5 27 11 42 24 46 41 4 13 4 26 1
29 -5 6 -138 53 -149 54 -4 0 -9 -4 -12 -9z"/>
<path d="M8964 7750 c-28 -11 -37 -36 -19 -54 16 -16 103 -33 215 -42 41 -3
87 -9 102 -14 33 -10 62 8 52 33 -3 9 -13 17 -20 17 -8 0 -36 11 -62 24 -80
40 -213 58 -268 36z"/>
<path d="M6766 7618 c-3 -7 -6 -132 -9 -276 -3 -226 -2 -265 11 -270 32 -12
42 27 42 172 0 78 5 168 12 201 6 33 12 87 12 120 l1 60 -33 3 c-20 2 -34 -2
-36 -10z"/>
<path d="M8854 7617 c-53 -14 -124 -52 -124 -67 0 -9 31 -13 235 -30 293 -25
465 -86 630 -224 33 -27 184 -172 335 -321 311 -307 375 -364 517 -458 103
-69 123 -77 142 -53 19 23 3 43 -71 86 -124 74 -267 199 -523 455 -242 242
-411 397 -508 464 -73 50 -204 109 -292 131 -102 26 -272 34 -341 17z"/>
<path d="M9410 7596 c0 -8 8 -17 19 -21 10 -3 54 -26 97 -50 43 -25 86 -45 96
-45 32 0 30 20 -4 34 -18 8 -64 33 -103 55 -73 43 -105 51 -105 27z"/>
<path d="M6961 7466 c-34 -54 -61 -144 -73 -243 -16 -123 -3 -230 67 -542 76
-343 90 -489 65 -651 -16 -99 -18 -102 -43 -89 -46 24 -111 98 -177 204 -38
61 -83 125 -100 144 -30 32 -32 33 -50 16 -35 -32 -27 -96 24 -191 50 -92 68
-152 90 -304 26 -183 29 -223 19 -217 -26 16 -139 198 -232 372 -56 104 -106
194 -112 200 -7 7 -18 1 -35 -18 -30 -35 -31 -79 -5 -163 22 -69 95 -540 110
-714 13 -139 14 -280 2 -280 -9 0 -54 94 -100 213 -63 158 -145 293 -162 266
-14 -22 -10 -121 7 -179 9 -29 43 -111 75 -182 118 -254 178 -484 185 -705 3
-73 2 -133 -1 -133 -13 0 -73 36 -123 73 -28 22 -109 104 -177 183 -69 79
-144 157 -165 174 l-40 32 -37 -23 c-68 -40 -103 -70 -118 -99 -14 -27 -14
-33 4 -67 25 -49 79 -121 162 -217 71 -81 133 -185 124 -208 -3 -8 -19 -25
-35 -36 -56 -42 -62 -154 -18 -357 11 -49 22 -144 25 -209 l6 -119 -44 6 c-24
4 -61 10 -81 13 -33 6 -41 3 -67 -24 -35 -38 -51 -98 -51 -191 0 -82 8 -91 99
-110 59 -12 81 -25 81 -47 0 -22 -93 -18 -138 5 -49 25 -138 41 -228 41 -40 0
-83 4 -96 10 -87 36 -563 215 -653 245 -216 71 -396 111 -575 130 -36 4 -98
21 -139 37 -115 45 -262 77 -390 84 -146 8 -214 -4 -266 -49 l-37 -32 21 -19
c20 -18 27 -19 95 -7 66 11 81 10 152 -9 85 -22 185 -35 359 -46 86 -6 116
-11 137 -27 23 -17 32 -18 67 -9 66 16 248 -31 486 -128 121 -49 239 -89 324
-109 63 -16 172 -66 216 -101 6 -4 37 -11 70 -15 33 -4 87 -10 120 -14 33 -4
83 -19 110 -32 42 -19 68 -24 159 -26 73 -2 130 -9 176 -23 244 -73 683 -76
1380 -10 113 11 271 20 351 20 164 0 221 -12 374 -76 70 -29 107 -38 168 -42
42 -2 77 -1 77 4 0 14 -48 62 -88 89 -53 34 -150 61 -309 85 -76 11 -145 23
-154 26 -13 4 -17 28 -22 141 -21 433 2 636 90 806 28 53 40 66 52 61 9 -4
106 -38 216 -74 246 -83 300 -109 398 -198 44 -40 104 -83 143 -102 59 -28
114 -70 223 -172 19 -18 67 -46 105 -64 39 -17 112 -54 161 -84 50 -29 128
-73 173 -98 l84 -45 -7 -36 c-3 -20 -21 -92 -40 -161 -18 -69 -36 -141 -40
-160 -4 -19 -30 -82 -57 -139 -27 -57 -121 -280 -208 -495 -87 -216 -186 -451
-220 -524 l-63 -131 -66 7 c-90 10 -440 9 -766 -2 -223 -7 -294 -6 -405 7 -74
9 -164 18 -200 22 -124 11 -366 57 -560 106 -114 29 -409 121 -715 224 -486
163 -748 245 -781 245 -8 0 -31 15 -51 32 l-38 33 -120 0 c-98 0 -126 -3 -148
-17 -35 -24 -106 -23 -236 2 -311 59 -462 33 -845 -146 -177 -82 -179 -83
-150 -96 19 -9 76 -13 169 -13 l140 0 90 41 c239 110 326 145 394 160 70 16
78 16 186 -5 86 -16 152 -21 277 -21 152 0 173 -2 269 -29 110 -31 280 -92
519 -186 80 -31 200 -77 268 -101 67 -24 175 -66 239 -94 145 -64 194 -76 324
-85 81 -6 109 -11 125 -26 36 -33 191 -55 572 -80 100 -7 182 -15 182 -19 0
-10 -126 -47 -270 -79 -241 -54 -290 -76 -421 -196 -162 -149 -203 -164 -451
-170 -108 -3 -168 -1 -168 6 0 25 33 82 93 162 81 105 110 158 97 171 -15 15
-186 20 -253 7 -32 -6 -79 -21 -105 -33 -36 -17 -67 -22 -132 -24 -70 -1 -99
-7 -163 -33 -72 -29 -86 -31 -197 -31 -87 0 -131 -4 -160 -16 -79 -32 -64 14
30 89 68 55 106 113 95 146 -17 54 -113 75 -209 46 -52 -16 -362 -174 -586
-299 -74 -41 -137 -73 -139 -70 -14 13 36 64 129 132 180 131 220 176 220 247
0 37 -24 95 -39 95 -13 0 -348 -120 -461 -165 -103 -41 -306 -140 -371 -181
-39 -24 -41 -25 -55 -7 -7 10 -23 47 -35 83 -26 78 -52 132 -72 148 -11 10
-55 1 -208 -38 -295 -77 -416 -127 -509 -210 l-45 -40 44 -40 c91 -83 216
-119 446 -127 124 -4 160 -9 210 -28 74 -29 178 -45 284 -45 110 0 107 -13
-18 -81 -42 -23 -73 -47 -85 -68 -18 -32 -18 -34 -1 -65 27 -47 85 -105 130
-129 52 -28 188 -29 407 -4 133 16 171 17 245 7 99 -13 128 -29 101 -57 -9 -9
-39 -28 -65 -42 -56 -30 -67 -60 -33 -96 12 -13 19 -29 15 -35 -4 -7 -39 -32
-79 -57 -127 -82 -156 -119 -136 -179 8 -24 19 -34 41 -39 69 -15 183 16 336
94 128 64 223 92 296 89 l62 -3 -29 -25 c-15 -14 -55 -49 -88 -78 -36 -33 -92
-69 -143 -92 -87 -40 -115 -67 -115 -111 0 -60 -3 -59 189 -59 161 0 179 2
206 21 17 11 72 40 122 64 51 24 107 54 124 66 29 20 39 21 123 16 50 -4 112
-12 137 -20 40 -12 55 -12 135 5 118 25 332 19 574 -16 291 -43 422 -52 561
-38 67 7 125 15 130 18 5 3 9 33 9 68 0 34 6 70 13 79 8 11 94 40 245 82 339
93 424 109 552 102 74 -4 116 -2 141 7 84 30 151 109 165 194 6 41 8 43 36 37
20 -5 58 2 114 20 95 30 109 30 239 -9 112 -33 145 -28 293 49 57 30 111 55
118 55 11 0 14 18 14 73 0 100 6 114 49 128 20 6 103 47 184 92 82 44 178 91
214 104 47 17 84 40 131 83 114 103 234 150 334 132 42 -8 48 -7 53 9 4 10 -3
39 -14 65 -12 26 -21 50 -21 55 0 14 67 10 107 -6 19 -8 43 -15 53 -15 9 0 29
-9 43 -20 31 -24 53 -26 61 -4 9 22 -57 83 -205 190 -159 115 -231 190 -254
263 -7 23 -6 23 31 16 63 -11 93 -33 214 -149 102 -98 122 -114 181 -134 36
-12 115 -52 175 -87 117 -69 138 -71 150 -17 17 79 26 92 60 92 13 0 24 3 24
6 0 18 -29 55 -79 101 l-56 52 42 1 c27 0 70 -13 122 -35 43 -19 83 -35 89
-35 21 0 42 39 42 79 0 49 0 49 149 86 58 15 201 53 318 86 468 130 719 184
967 208 55 5 92 14 97 22 4 7 15 43 23 79 8 36 24 108 36 160 27 117 61 191
104 227 35 29 34 25 52 181 l7 52 -49 -6 c-175 -19 -286 -53 -523 -158 -195
-86 -321 -131 -411 -145 -93 -15 -120 -14 -120 5 0 9 12 36 28 59 26 40 31 43
97 55 268 47 509 146 431 176 -8 3 -36 -6 -62 -19 -76 -38 -167 -66 -294 -92
-134 -27 -162 -30 -419 -50 -218 -17 -355 -42 -451 -81 -66 -26 -158 -83 -180
-109 -11 -13 -25 -8 -103 32 -50 26 -105 60 -123 76 l-33 28 14 46 c27 88 97
134 157 102 16 -9 25 -6 47 14 14 14 77 55 139 92 l113 66 -27 21 c-15 12 -81
41 -147 65 -109 39 -185 81 -194 110 -6 16 146 -14 260 -52 l98 -32 26 20 c14
11 36 45 49 74 21 47 30 56 78 77 53 24 129 84 146 116 6 11 4 39 -5 76 -15
61 -19 132 -10 156 4 9 17 13 38 10 23 -3 38 2 50 16 19 20 33 20 164 -9 54
-11 71 -11 120 2 45 12 58 19 58 34 0 13 -9 21 -32 26 -45 9 -104 42 -187 103
-144 106 -152 109 -310 117 -140 6 -142 7 -266 58 -83 33 -149 53 -193 58
l-68 8 193 124 c235 151 600 423 686 511 35 36 107 108 159 161 68 68 94 101
90 113 -10 25 -30 19 -68 -20 -18 -20 -84 -68 -144 -108 -61 -40 -166 -113
-235 -163 -261 -188 -374 -255 -511 -300 -47 -16 -119 -50 -160 -76 -122 -76
-259 -126 -314 -116 -33 7 52 80 137 120 342 160 483 239 801 451 254 169 267
178 267 195 0 8 32 47 70 88 39 41 70 80 70 87 0 7 9 19 20 26 24 15 26 50 4
59 -21 8 -67 -18 -212 -125 -164 -121 -312 -207 -312 -181 0 16 176 189 345
338 83 73 155 140 162 148 13 17 7 43 -11 43 -6 0 -87 -67 -179 -149 -103 -92
-174 -148 -183 -144 -16 6 11 44 121 168 111 125 155 184 191 259 34 71 62
171 51 182 -12 12 -99 -19 -155 -56 -31 -21 -103 -81 -160 -135 -57 -54 -105
-96 -107 -94 -10 10 38 91 100 168 71 90 115 167 115 201 0 31 -56 52 -105 39
-60 -17 -296 -258 -549 -564 -60 -72 -142 -142 -154 -130 -2 2 3 22 12 45 9
22 16 50 16 62 0 12 6 29 14 37 8 9 53 88 101 176 107 197 157 268 240 341 36
32 65 63 65 70 0 27 -34 23 -80 -11 -95 -69 -143 -135 -266 -362 -79 -147
-112 -193 -136 -193 -27 0 32 150 73 184 21 18 30 38 39 84 6 34 24 107 40
164 72 257 97 408 84 496 l-7 44 -37 -37 c-55 -54 -80 -107 -161 -340 -94
-273 -131 -360 -176 -416 -40 -48 -81 -84 -89 -76 -8 8 16 190 48 357 26 136
32 191 32 312 1 80 -2 149 -6 153 -13 14 -56 -24 -67 -57 -5 -18 -15 -69 -21
-112 -9 -72 -38 -199 -171 -746 -50 -207 -36 -160 -120 -405 -97 -280 -121
-367 -106 -382 21 -21 33 -1 65 107 47 159 127 381 138 381 16 -1 16 -50 -1
-134 -23 -119 -58 -220 -142 -412 -87 -198 -113 -264 -113 -286 0 -9 47 -66
104 -127 57 -60 113 -127 126 -147 l22 -36 -21 -20 c-11 -11 -21 -26 -21 -33
0 -8 -8 -24 -19 -37 l-18 -23 -39 23 c-134 79 -451 345 -599 503 -132 141
-232 216 -322 243 -21 6 -23 3 -23 -30 0 -60 26 -104 118 -199 127 -131 132
-139 132 -205 0 -68 -21 -233 -50 -385 -11 -61 -20 -120 -20 -133 0 -26 26
-41 42 -25 13 13 62 289 79 444 9 90 15 115 26 111 7 -3 49 -48 94 -99 l80
-95 -20 -127 c-11 -70 -25 -163 -31 -207 -6 -44 -20 -113 -31 -154 -21 -77
-17 -96 17 -89 26 5 48 91 79 313 33 229 32 225 60 225 59 0 73 -69 41 -210
-9 -40 -23 -120 -31 -179 -8 -58 -25 -137 -37 -176 -22 -67 -24 -70 -54 -69
-33 2 -125 44 -163 75 l-25 20 18 47 c32 83 55 181 72 305 8 67 20 130 25 139
12 24 11 52 -3 102 -15 52 -13 50 -37 36 -18 -9 -21 -20 -21 -75 0 -137 -42
-379 -82 -473 l-18 -43 -31 18 c-56 33 -245 187 -437 357 -296 261 -405 342
-587 436 -136 71 -158 76 -226 50 -107 -39 -194 -141 -266 -312 -20 -48 -39
-86 -41 -83 -2 2 -8 23 -13 46 -6 23 -36 110 -69 193 -88 225 -100 329 -47
408 12 18 61 59 107 90 47 32 96 70 108 85 l24 28 -9 265 c-10 337 -8 576 7
687 14 108 49 215 130 398 104 234 123 301 124 432 1 61 -2 114 -6 118 -11 12
-85 -34 -117 -72 -43 -52 -68 -125 -97 -273 -55 -291 -73 -348 -130 -404 l-29
-28 -13 68 c-7 38 -24 120 -38 182 l-24 112 70 243 c93 320 162 527 221 666
52 120 55 155 16 149 -46 -6 -141 -250 -272 -697 -46 -156 -87 -286 -90 -290
-4 -3 -26 15 -49 41 -54 59 -72 120 -86 290 -10 134 -19 185 -45 257 -21 61
-83 180 -150 290 -69 115 -109 194 -125 249 -7 23 -14 42 -16 42 -2 0 -14 -5
-28 -11 -20 -10 -29 -8 -54 10 l-30 21 -21 -34z m-211 -2126 c28 -28 30 -87 4
-128 -17 -25 -139 -90 -151 -79 -4 4 -8 33 -10 65 -5 69 17 117 68 144 43 23
64 23 89 -2z m3399 -185 c-6 -19 -7 -40 -4 -45 3 -6 -1 -10 -9 -10 -8 0 -17 4
-20 8 -9 15 14 82 29 82 11 0 11 -7 4 -35z m1071 -20 c0 -17 -48 -51 -58 -41
-4 4 6 19 21 32 33 28 37 29 37 9z m-1452 -1326 c3 -48 -11 -99 -28 -99 -11 0
-14 132 -3 144 15 15 28 -3 31 -45z m220 -13 c3 -12 -14 -34 -46 -65 -27 -25
-56 -59 -65 -76 -26 -53 -47 -184 -62 -397 -20 -291 -22 -302 -54 -326 -15
-11 -68 -41 -117 -66 -121 -61 -140 -75 -180 -134 -30 -45 -60 -72 -78 -72
-14 0 -4 78 13 106 11 17 58 64 106 104 99 83 138 131 153 192 22 91 62 276
73 343 6 39 18 79 25 91 8 11 23 63 34 115 33 155 33 155 110 196 35 19 84 13
88 -11z m-305 -388 c-41 -223 -53 -248 -89 -193 -18 28 -18 29 28 168 28 82
36 97 54 97 21 0 21 -1 7 -72z m90 -1699 c34 -39 34 -41 0 -33 -33 8 -63 32
-63 51 0 24 35 14 63 -18z"/>
<path d="M6533 7462 c-6 -4 -46 -55 -90 -113 -155 -207 -223 -284 -275 -310
-20 -10 -43 -19 -51 -19 -7 0 -18 -21 -26 -48 -16 -64 -53 -107 -145 -171 -81
-55 -90 -56 -130 -12 -25 28 -44 15 -65 -45 -10 -27 -32 -84 -50 -127 l-32
-78 2 -238 c3 -234 3 -238 -21 -286 -18 -35 -36 -55 -63 -68 -21 -11 -40 -18
-42 -15 -2 2 1 65 6 140 21 283 -30 448 -153 499 -36 15 -55 6 -81 -39 -34
-58 -33 -116 8 -278 21 -82 40 -180 42 -219 5 -65 8 -73 44 -110 43 -46 62
-88 53 -119 -4 -11 -24 -40 -45 -62 -20 -23 -42 -57 -47 -76 -5 -19 -27 -61
-49 -94 -22 -32 -68 -110 -103 -173 -133 -246 -195 -301 -413 -367 -48 -14
-107 -39 -130 -55 -43 -28 -136 -148 -175 -224 -41 -82 -69 -225 -43 -225 5 0
30 23 55 51 50 56 98 146 117 223 9 35 25 62 53 91 42 41 68 53 214 99 166 52
245 127 373 357 96 174 129 223 262 393 112 143 178 205 253 238 51 23 52 24
72 93 29 96 60 145 209 331 71 89 138 181 147 205 10 25 24 104 31 179 7 74
18 147 24 162 6 15 35 60 66 100 34 45 58 87 61 109 4 25 34 74 90 149 46 61
84 118 84 125 0 18 -23 35 -37 27z"/>
<path d="M8360 7340 c-8 -6 -46 -19 -85 -31 -154 -46 -265 -133 -265 -206 0
-68 10 -71 87 -23 83 53 136 92 188 141 22 21 56 45 76 53 43 18 63 40 55 61
-6 17 -34 19 -56 5z"/>
<path d="M8959 7298 c-13 -24 -11 -57 6 -130 18 -80 49 -284 70 -458 28 -243
87 -892 92 -1015 5 -127 15 -170 44 -185 15 -9 19 -2 34 62 69 306 71 453 7
728 -44 193 -58 278 -67 420 -16 244 -51 432 -105 552 -18 40 -25 47 -46 46
-14 -2 -30 -10 -35 -20z"/>
<path d="M10396 7082 c-3 -5 -20 -12 -37 -16 -19 -4 -29 -11 -26 -18 3 -7 22
-62 42 -123 20 -60 51 -136 67 -168 32 -60 97 -127 123 -127 23 0 20 132 -5
214 -29 93 -147 265 -164 238z"/>
<path d="M9404 6974 c-4 -14 1 -186 11 -382 11 -234 16 -467 14 -674 -4 -314
-4 -318 18 -339 l21 -22 15 29 c77 151 126 455 112 694 -10 183 -58 486 -95
605 -5 17 -14 49 -20 73 -10 37 -14 42 -40 42 -23 0 -31 -5 -36 -26z"/>
<path d="M6470 6951 c0 -6 -11 -13 -25 -17 -23 -6 -25 -10 -19 -43 4 -20 20
-72 37 -116 17 -44 30 -93 29 -110 -2 -56 7 -77 31 -73 21 3 22 9 25 98 4 126
-5 192 -31 231 -23 33 -47 49 -47 30z"/>
<path d="M10724 6752 c-18 -43 -38 -119 -49 -179 -5 -32 -4 -43 6 -43 7 0 37
-25 66 -56 l52 -57 11 27 c13 35 12 88 -1 146 -6 25 -11 75 -12 112 -1 64 -2
68 -29 77 -26 9 -29 8 -44 -27z"/>
<path d="M8406 6455 c-32 -75 -56 -168 -91 -351 -22 -115 -48 -215 -65 -256
-32 -76 -180 -349 -258 -477 -95 -154 -150 -345 -139 -475 7 -75 33 -92 101
-66 42 16 58 53 68 158 5 53 22 147 39 208 16 61 33 143 38 181 8 61 20 91 89
219 117 215 177 353 213 489 17 66 49 158 72 204 l40 83 -18 33 c-9 19 -30 46
-46 60 l-28 27 -15 -37z"/>
<path d="M11045 6426 c-39 -17 -98 -83 -129 -143 -25 -51 -99 -264 -93 -270 5
-4 76 21 114 40 82 43 182 161 221 264 37 95 37 101 -5 112 -49 14 -71 13
-108 -3z"/>
<path d="M4929 6377 c-106 -54 -120 -170 -53 -441 39 -156 64 -284 64 -332 0
-54 15 -57 65 -12 90 78 128 246 105 456 -14 127 -33 202 -68 271 -39 77 -57
87 -113 58z"/>
<path d="M9970 6365 c0 -9 -6 -29 -14 -44 -8 -15 -17 -45 -20 -67 -2 -21 -35
-109 -72 -194 -36 -85 -105 -252 -151 -370 -47 -118 -123 -304 -169 -414 -99
-233 -153 -384 -184 -518 -12 -54 -24 -98 -27 -98 -7 0 -77 37 -136 73 -32 19
-81 41 -109 48 -38 9 -70 27 -122 71 -108 91 -232 175 -322 218 -234 112 -353
123 -446 40 l-43 -38 40 -18 c22 -9 98 -32 168 -50 70 -18 151 -46 179 -61 49
-26 87 -67 75 -79 -3 -4 -53 -10 -110 -14 -110 -8 -150 -21 -145 -48 3 -15 17
-17 128 -13 114 3 137 0 255 -29 72 -17 157 -34 189 -38 46 -4 69 -12 101 -36
22 -17 79 -51 125 -75 47 -24 114 -65 150 -91 85 -63 165 -103 303 -151 136
-48 136 -48 151 -26 9 15 7 21 -9 35 -11 9 -31 32 -43 49 -14 20 -54 49 -103
74 -84 44 -125 86 -114 119 14 44 108 171 187 253 l86 88 22 152 c12 84 60
343 105 577 46 234 86 445 90 469 4 24 18 67 32 97 14 32 23 67 21 86 -3 29
-7 33 -35 36 -25 2 -33 -1 -33 -13z"/>
<path d="M6159 6279 c-22 -41 -5 -103 55 -197 44 -70 56 -98 56 -129 0 -49 21
-73 46 -52 13 10 15 26 10 79 -12 137 -49 246 -99 291 -38 35 -52 36 -68 8z"/>
<path d="M10170 6128 c-5 -13 -30 -122 -55 -243 -66 -315 -119 -525 -176 -703
-51 -155 -53 -178 -13 -170 36 7 143 384 245 859 28 136 49 254 46 263 -9 23
-36 20 -47 -6z"/>
<path d="M4599 5968 c-18 -34 -23 -141 -9 -210 25 -128 92 -226 170 -249 22
-7 43 -9 46 -6 14 13 21 153 13 229 -16 140 -64 217 -153 243 -27 8 -51 15
-52 15 -2 0 -9 -10 -15 -22z"/>
<path d="M4302 5670 c-71 -43 -80 -150 -22 -267 58 -117 146 -152 213 -85 31
31 32 36 32 110 0 107 -42 200 -110 242 -41 25 -71 25 -113 0z"/>
<path d="M6100 5231 c-5 -11 -10 -64 -10 -117 0 -54 -5 -112 -12 -129 -10 -29
-8 -38 22 -91 18 -33 49 -81 69 -109 21 -27 61 -94 91 -148 50 -91 123 -177
151 -177 9 0 10 32 6 118 -6 144 -31 233 -128 460 -38 90 -69 167 -69 173 0 5
-8 9 -18 9 -10 0 -27 7 -38 15 -27 20 -51 19 -64 -4z"/>
<path d="M5311 5055 c-23 -34 -23 -34 -4 -67 10 -18 38 -47 61 -65 55 -42 206
-90 297 -95 64 -3 70 -1 70 17 0 15 -9 22 -40 28 -65 14 -103 34 -209 111
-161 117 -147 111 -175 71z"/>
<path d="M11771 4889 c-123 -215 -253 -379 -381 -482 -62 -50 -92 -67 -125
-72 -30 -4 -65 -22 -111 -56 -55 -40 -74 -49 -109 -49 -61 0 -97 -30 -93 -79
l3 -36 80 1 c135 2 219 43 395 191 101 84 216 167 247 177 11 3 27 23 36 44 9
20 47 76 85 124 60 75 69 91 68 125 -1 21 -3 59 -4 85 -1 33 -9 55 -26 74
l-23 28 -42 -75z"/>
<path d="M11974 4952 c-6 -4 -14 -32 -17 -62 -4 -30 -20 -94 -36 -142 -46
-135 -64 -240 -59 -338 5 -96 25 -144 80 -197 41 -40 74 -52 155 -59 63 -6 65
-6 61 17 -2 17 -13 26 -39 34 -45 13 -123 99 -157 174 -21 46 -25 69 -24 146
1 76 7 110 37 203 28 86 35 125 33 169 -3 55 -12 70 -34 55z"/>
<path d="M8163 4720 c-72 -15 -112 -45 -113 -84 0 -16 5 -18 38 -11 20 4 48 9
62 11 19 4 38 -6 75 -37 63 -53 187 -113 290 -140 61 -16 109 -21 200 -21 66
1 133 4 148 9 l28 8 -30 42 c-60 83 -167 135 -317 155 -74 9 -84 13 -79 28 5
15 -3 20 -45 29 -73 16 -208 22 -257 11z"/>
<path d="M4980 4663 c-246 -47 -289 -62 -271 -92 7 -11 29 -8 118 13 167 40
161 41 263 -64 58 -60 95 -90 110 -90 13 0 20 -5 17 -12 -6 -18 -39 -15 -152
16 -119 33 -260 45 -305 26 -26 -11 -60 -53 -60 -75 0 -3 34 -5 76 -5 86 0
193 -22 268 -55 28 -12 109 -57 180 -98 l129 -76 79 -153 c97 -187 192 -353
268 -473 32 -49 61 -100 65 -113 5 -17 13 -22 28 -20 21 3 22 8 22 108 -1 117
-9 140 -91 256 -43 60 -73 121 -129 257 -36 88 -68 125 -194 228 -103 83 -170
153 -158 165 3 3 26 -2 51 -11 33 -13 61 -16 96 -12 28 3 50 2 50 -2 0 -15 90
-109 125 -131 l35 -22 0 -78 c0 -57 4 -81 15 -90 8 -7 15 -23 15 -36 0 -16 20
-44 58 -82 47 -47 72 -86 135 -212 43 -85 89 -168 103 -185 l27 -29 18 23 c25
31 24 63 -7 152 -14 41 -43 146 -64 234 -42 177 -70 260 -101 300 -12 14 -52
41 -90 61 -38 19 -69 38 -69 42 0 5 -21 24 -47 42 -27 19 -78 58 -115 87 -71
56 -105 65 -126 33 -7 -11 -18 -20 -26 -20 -14 0 -82 69 -129 132 -55 72 -99
84 -217 61z"/>
<path d="M915 4469 c-60 -4 -168 -8 -240 -9 -156 -1 -225 -11 -368 -51 -59
-16 -117 -27 -127 -24 -11 4 -45 1 -75 -5 -63 -13 -105 -53 -105 -100 0 -50
41 -50 160 1 100 42 286 91 373 97 47 3 107 0 148 -8 63 -12 83 -11 202 8 220
36 355 29 678 -39 81 -16 157 -30 170 -31 38 -1 176 -44 270 -83 193 -79 387
-108 914 -135 110 -6 236 -15 281 -20 66 -8 99 -7 190 9 301 54 512 71 876 71
317 0 393 7 423 39 15 18 14 20 -32 37 -40 15 -93 19 -333 23 -225 5 -290 9
-307 20 -20 14 -26 12 -71 -12 -59 -32 -88 -34 -95 -8 -5 19 -7 19 -68 5 -172
-41 -205 -46 -282 -39 -62 5 -83 3 -102 -9 -20 -13 -25 -13 -35 -1 -15 18 -58
19 -97 4 -50 -20 -175 -30 -292 -23 -99 6 -114 9 -118 25 -6 21 -14 24 -29 10
-10 -10 -374 3 -411 14 -13 4 -23 11 -23 15 0 4 -28 5 -63 3 -53 -5 -80 0
-176 31 -88 29 -130 37 -185 37 -87 0 -156 18 -261 68 -94 45 -168 66 -285 81
-94 11 -336 11 -505 -1z"/>
<path d="M11639 4268 c-31 -76 -8 -140 65 -183 49 -28 174 -62 271 -72 86 -10
93 -28 20 -57 -65 -26 -224 -28 -306 -3 -53 16 -60 22 -108 92 -74 107 -141
136 -141 62 0 -19 7 -67 16 -106 14 -63 20 -74 48 -87 17 -9 72 -47 121 -83
50 -37 100 -73 112 -79 15 -8 90 -11 253 -8 l231 3 40 39 c57 55 72 88 66 143
-7 66 -23 74 -135 66 -88 -7 -95 -6 -118 16 -16 15 -24 34 -24 54 0 30 -3 33
-39 39 -22 3 -80 22 -131 41 -51 19 -110 38 -131 41 -42 7 -59 26 -59 66 0 23
-16 48 -31 48 -4 0 -13 -15 -20 -32z"/>
<path d="M1215 4258 c-177 -21 -376 -85 -492 -158 -37 -24 -108 -57 -158 -74
-83 -29 -91 -34 -116 -76 -15 -25 -31 -65 -34 -89 l-7 -44 51 6 c72 9 151 43
266 117 276 176 318 194 445 194 105 0 150 -24 248 -130 42 -47 100 -100 127
-119 l50 -35 45 -162 c38 -141 44 -176 45 -263 0 -127 -15 -161 -73 -167 -22
-2 -50 -1 -63 2 -27 7 -26 -4 -13 192 5 86 3 122 -11 180 -22 93 -62 172 -117
231 -36 40 -51 49 -97 57 -29 6 -83 10 -119 10 -62 0 -66 -2 -101 -38 -58 -61
-101 -120 -111 -149 -18 -54 -62 -349 -62 -423 -1 -109 9 -156 44 -196 17 -19
35 -34 42 -33 6 0 23 23 37 52 27 54 55 71 71 43 11 -20 36 -21 58 -1 15 14
30 14 141 -2 99 -14 186 -17 424 -16 165 1 338 4 385 6 47 2 166 0 265 -5 186
-10 235 -4 235 27 0 37 -39 44 -265 50 -209 5 -224 7 -308 34 -117 39 -167 72
-167 108 0 3 33 4 74 1 52 -2 80 -8 93 -21 14 -12 22 -14 31 -5 8 8 30 8 85
-2 56 -9 79 -10 95 -1 30 16 39 57 17 81 -18 19 -95 50 -127 50 -10 0 -29 13
-43 28 -27 31 -93 64 -224 113 -103 39 -152 80 -154 129 -2 35 -2 35 38 33 23
-1 72 -15 109 -33 89 -40 139 -39 144 4 5 38 -15 83 -47 105 -15 11 -65 32
-111 46 -99 32 -136 49 -168 78 -21 20 -23 20 -58 4 l-35 -17 -32 36 c-32 36
-254 236 -272 245 -5 3 -41 2 -80 -3z m-137 -560 c16 -63 32 -422 19 -434 -1
-1 -13 -4 -27 -6 -44 -6 -55 36 -52 202 4 235 32 347 60 238z m130 -403 c-3
-33 -7 -41 -25 -43 -22 -3 -23 0 -23 57 0 33 5 63 10 66 6 3 10 16 11 28 1 14
6 5 15 -23 8 -25 13 -63 12 -85z"/>
<path d="M8976 4227 c-11 -41 -6 -132 10 -192 8 -33 14 -79 11 -102 -5 -50 14
-76 39 -52 15 15 33 130 34 211 0 64 -26 125 -60 143 -26 13 -28 13 -34 -8z"/>
<path d="M9156 4198 c-9 -26 -29 -406 -23 -423 4 -10 15 -15 29 -13 30 4 37
50 40 273 3 170 3 170 -20 173 -12 2 -24 -3 -26 -10z"/>
<path d="M554 3607 c-57 -155 -66 -225 -35 -274 24 -38 51 -44 51 -10 0 12 16
74 36 137 42 138 51 199 34 239 -23 57 -35 45 -86 -92z"/>
<path d="M11744 3519 c4 -13 10 -49 13 -80 7 -76 -17 -119 -116 -210 -72 -66
-88 -75 -183 -109 -185 -65 -262 -107 -251 -136 8 -21 24 -17 100 20 105 53
259 102 343 110 323 29 558 97 703 203 52 38 134 139 123 150 -18 18 -153 14
-273 -7 -177 -31 -238 -26 -329 28 -38 23 -85 45 -103 48 -33 7 -34 6 -27 -17z"/>
<path d="M12693 3446 c-70 -73 -159 -135 -279 -194 -139 -69 -229 -98 -379
-122 -131 -22 -163 -35 -152 -64 8 -21 49 -20 163 0 49 8 141 17 204 19 134 3
221 26 401 103 129 55 123 46 138 197 8 78 7 91 -8 102 -25 20 -33 16 -88 -41z"/>
<path d="M3035 3378 c-152 -60 -288 -150 -488 -322 l-89 -76 -96 0 c-53 0
-151 7 -217 14 -84 10 -268 15 -618 16 l-497 1 -10 -27 c-13 -33 -8 -48 36
-121 27 -46 42 -60 72 -70 87 -27 144 -14 271 62 50 31 111 59 134 64 43 8
101 -2 112 -19 14 -22 -53 -121 -149 -220 -56 -58 -113 -120 -126 -139 l-24
-34 34 7 c139 27 265 150 355 347 l25 57 158 7 c96 4 194 3 252 -4 160 -18
188 -19 259 -11 l68 7 109 95 c60 51 134 113 165 136 75 56 218 142 238 142 9
0 40 11 69 25 42 19 52 29 52 48 0 14 -7 28 -16 31 -20 8 -20 8 -79 -16z"/>
<path d="M555 3145 c-16 -127 41 -275 107 -275 17 0 18 7 12 88 -8 121 -27
184 -65 216 -17 14 -34 26 -39 26 -5 0 -12 -25 -15 -55z"/>
<path d="M9325 3184 c-73 -37 -122 -105 -175 -239 -78 -197 -171 -371 -381
-705 -80 -129 -161 -262 -178 -294 -28 -53 -30 -62 -17 -75 19 -19 39 -3 68
53 11 23 95 160 186 306 92 146 197 326 235 400 83 161 109 186 73 70 -37
-120 -107 -273 -243 -529 -57 -108 -104 -200 -104 -206 -3 -24 2 -35 16 -35
27 0 300 536 359 705 19 55 52 138 74 185 49 104 78 189 102 298 10 45 17 82
17 82 -1 0 -15 -7 -32 -16z"/>
<path d="M12713 3145 c-25 -22 -26 -24 -8 -25 26 0 67 28 60 41 -10 14 -22 11
-52 -16z"/>
<path d="M4515 3043 c-36 -7 -160 -57 -167 -67 -24 -35 84 -53 192 -32 54 10
77 10 137 -3 68 -14 73 -14 93 4 28 25 26 32 -18 54 -62 32 -187 55 -237 44z"/>
<path d="M3320 2947 c-35 -12 -51 -40 -32 -59 12 -12 92 11 99 29 5 13 -13 44
-26 42 -3 0 -22 -5 -41 -12z"/>
<path d="M2411 2815 c-13 -28 -21 -65 -21 -99 0 -44 4 -58 26 -80 15 -14 32
-26 38 -26 6 0 22 -3 35 -7 l24 -6 -7 81 c-9 111 -15 137 -38 161 -27 29 -33
27 -57 -24z"/>
<path d="M2824 2749 c-12 -12 -57 -30 -110 -43 -102 -26 -127 -37 -148 -68
-37 -52 -7 -99 83 -131 50 -18 51 -18 51 -60 0 -88 38 -161 103 -198 33 -18
48 -20 91 -15 28 4 71 9 95 11 51 4 64 14 59 46 -2 20 -9 24 -46 27 -24 2 -50
-2 -57 -8 -30 -25 -93 17 -127 85 -11 22 -31 55 -45 73 -21 28 -23 37 -14 65
6 17 38 68 71 112 62 82 71 108 44 119 -24 9 -28 8 -50 -15z"/>
<path d="M4464 2727 c-9 -24 3 -36 44 -42 20 -4 93 -22 162 -40 69 -19 143
-35 165 -37 35 -3 40 0 43 19 3 18 -3 24 -25 28 -15 3 -86 21 -158 41 -168 45
-223 52 -231 31z"/>
<path d="M4479 2630 c-9 -5 -56 -21 -105 -35 -71 -21 -123 -28 -254 -35 -232
-12 -327 -37 -388 -103 l-23 -24 23 -7 c85 -22 275 7 377 58 28 14 67 26 88
26 81 1 308 64 342 95 28 27 -21 48 -60 25z"/>
<path d="M3545 2584 c-22 -8 -79 -23 -127 -34 -110 -23 -200 -64 -238 -107
-37 -42 -37 -49 0 -68 66 -34 137 -11 266 87 39 30 86 60 105 67 76 29 80 31
77 49 -4 23 -34 25 -83 6z"/>
<path d="M3750 2263 c-42 -7 -94 -25 -111 -39 -16 -15 -201 -54 -252 -54 -29
0 -53 12 -109 52 -15 10 -21 10 -35 -4 -32 -33 0 -65 117 -120 155 -73 147
-73 238 9 86 78 101 87 155 97 21 4 41 14 44 22 8 21 -17 41 -47 37z"/>
<path d="M5541 2231 c-13 -8 -13 -12 0 -27 25 -30 93 -53 192 -64 62 -7 138
-25 214 -51 487 -164 1094 -293 1693 -358 384 -42 805 -67 827 -50 15 14 17
35 3 44 -6 4 -117 13 -248 20 -827 49 -1494 164 -2147 370 -385 121 -398 125
-460 125 -33 0 -66 -4 -74 -9z"/>
<path d="M7440 1901 c0 -26 19 -31 109 -31 85 0 215 -16 447 -54 174 -29 379
-49 444 -44 37 2 45 6 45 23 0 18 -7 20 -65 22 -115 4 -280 23 -465 53 -226
37 -339 50 -437 50 -70 0 -78 -2 -78 -19z"/>
<path d="M2710 1530 c-41 -10 -99 -19 -127 -19 -44 -1 -53 -4 -53 -18 1 -35
37 -99 76 -132 67 -60 291 -152 331 -137 29 11 12 127 -33 233 l-39 93 -40 -1
c-22 -1 -74 -10 -115 -19z"/>
</g>
</svg>
